<svg xmlns="http://www.w3.org/2000/svg" xmlns:xlink="http://www.w3.org/1999/xlink" width="500"
    zoomAndPan="magnify" viewBox="0 0 375 374.999991" height="500"
    preserveAspectRatio="xMidYMid meet" version="1.0">
    <defs>
        <g />
        <clipPath id="1b1ab64d3d">
            <path
                d="M 96.0625 196.734375 L 124.425781 196.734375 L 124.425781 225.101562 L 96.0625 225.101562 Z M 96.0625 196.734375 "
                clip-rule="nonzero" />
        </clipPath>
        <clipPath id="d525fc1f80">
            <path
                d="M 110.242188 196.734375 C 102.410156 196.734375 96.0625 203.085938 96.0625 210.917969 C 96.0625 218.75 102.410156 225.101562 110.242188 225.101562 C 118.078125 225.101562 124.425781 218.75 124.425781 210.917969 C 124.425781 203.085938 118.078125 196.734375 110.242188 196.734375 Z M 110.242188 196.734375 "
                clip-rule="nonzero" />
        </clipPath>
        <clipPath id="b866192c37">
            <path
                d="M 95.277344 195.949219 L 124.25 195.949219 L 124.25 224.921875 L 95.277344 224.921875 Z M 95.277344 195.949219 "
                clip-rule="nonzero" />
        </clipPath>
    </defs>
    <g fill="#000000" fill-opacity="1">
        <g transform="translate(54.428358, 221.817122)">
            <g>
                <path
                    d="M 34.328125 -24.65625 C 37.304688 -24.65625 39.679688 -23.757812 41.453125 -21.96875 C 43.234375 -20.175781 44.125 -17.476562 44.125 -13.875 L 44.125 0 L 35.625 0 L 35.625 -12.484375 C 35.625 -14.179688 35.300781 -15.429688 34.65625 -16.234375 C 34.019531 -17.046875 33.117188 -17.453125 31.953125 -17.453125 C 30.671875 -17.453125 29.640625 -17.003906 28.859375 -16.109375 C 28.085938 -15.210938 27.703125 -13.851562 27.703125 -12.03125 L 27.703125 0 L 19.203125 0 L 19.203125 -12.484375 C 19.203125 -15.796875 17.976562 -17.453125 15.53125 -17.453125 C 14.21875 -17.453125 13.171875 -17.003906 12.390625 -16.109375 C 11.617188 -15.210938 11.234375 -13.851562 11.234375 -12.03125 L 11.234375 0 L 2.734375 0 L 2.734375 -24.25 L 10.828125 -24.25 L 10.828125 -21.703125 C 11.722656 -22.691406 12.789062 -23.429688 14.03125 -23.921875 C 15.269531 -24.410156 16.617188 -24.65625 18.078125 -24.65625 C 19.773438 -24.65625 21.296875 -24.34375 22.640625 -23.71875 C 23.984375 -23.09375 25.070312 -22.140625 25.90625 -20.859375 C 26.863281 -22.078125 28.070312 -23.015625 29.53125 -23.671875 C 31 -24.328125 32.597656 -24.65625 34.328125 -24.65625 Z M 34.328125 -24.65625 " />
            </g>
        </g>
    </g>
    <g fill="#000000" fill-opacity="1">
        <g transform="translate(96.442225, 221.817122)">
            <g>
                <path
                    d="M 14.90625 0.40625 C 12.3125 0.40625 9.96875 -0.128906 7.875 -1.203125 C 5.789062 -2.273438 4.15625 -3.765625 2.96875 -5.671875 C 1.789062 -7.585938 1.203125 -9.753906 1.203125 -12.171875 C 1.203125 -14.554688 1.789062 -16.703125 2.96875 -18.609375 C 4.15625 -20.523438 5.785156 -22.007812 7.859375 -23.0625 C 9.929688 -24.125 12.28125 -24.65625 14.90625 -24.65625 C 17.53125 -24.65625 19.882812 -24.125 21.96875 -23.0625 C 24.0625 -22.007812 25.6875 -20.535156 26.84375 -18.640625 C 28.007812 -16.742188 28.59375 -14.585938 28.59375 -12.171875 C 28.59375 -9.753906 28.007812 -7.585938 26.84375 -5.671875 C 25.6875 -3.765625 24.0625 -2.273438 21.96875 -1.203125 C 19.882812 -0.128906 17.53125 0.40625 14.90625 0.40625 Z M 14.90625 -6.359375 C 16.394531 -6.359375 17.613281 -6.867188 18.5625 -7.890625 C 19.519531 -8.921875 20 -10.347656 20 -12.171875 C 20 -13.960938 19.519531 -15.363281 18.5625 -16.375 C 17.613281 -17.394531 16.394531 -17.90625 14.90625 -17.90625 C 13.414062 -17.90625 12.191406 -17.394531 11.234375 -16.375 C 10.273438 -15.363281 9.796875 -13.960938 9.796875 -12.171875 C 9.796875 -10.347656 10.273438 -8.921875 11.234375 -7.890625 C 12.191406 -6.867188 13.414062 -6.359375 14.90625 -6.359375 Z M 14.90625 -6.359375 " />
            </g>
        </g>
    </g>
    <g fill="#000000" fill-opacity="1">
        <g transform="translate(121.498413, 221.817122)">
            <g>
                <path
                    d="M 28.28125 -24.25 L 18.265625 0 L 9.484375 0 L -0.5 -24.25 L 8.234375 -24.25 L 14.046875 -9.4375 L 20.1875 -24.25 Z M 28.28125 -24.25 " />
            </g>
        </g>
    </g>
    <g fill="#000000" fill-opacity="1">
        <g transform="translate(144.496421, 221.817122)">
            <g>
                <path
                    d="M 2.734375 -24.25 L 11.234375 -24.25 L 11.234375 0 L 2.734375 0 Z M 6.984375 -26.9375 C 5.429688 -26.9375 4.175781 -27.367188 3.21875 -28.234375 C 2.269531 -29.097656 1.796875 -30.171875 1.796875 -31.453125 C 1.796875 -32.742188 2.269531 -33.820312 3.21875 -34.6875 C 4.175781 -35.550781 5.429688 -35.984375 6.984375 -35.984375 C 8.535156 -35.984375 9.785156 -35.570312 10.734375 -34.75 C 11.691406 -33.925781 12.171875 -32.875 12.171875 -31.59375 C 12.171875 -30.25 11.691406 -29.132812 10.734375 -28.25 C 9.785156 -27.375 8.535156 -26.9375 6.984375 -26.9375 Z M 6.984375 -26.9375 " />
            </g>
        </g>
    </g>
    <g fill="#000000" fill-opacity="1">
        <g transform="translate(153.758267, 221.817122)">
            <g>
                <path
                    d="M 27.515625 -12.078125 C 27.515625 -12.023438 27.472656 -11.328125 27.390625 -9.984375 L 9.75 -9.984375 C 10.113281 -8.722656 10.804688 -7.757812 11.828125 -7.09375 C 12.859375 -6.425781 14.148438 -6.09375 15.703125 -6.09375 C 16.867188 -6.09375 17.875 -6.253906 18.71875 -6.578125 C 19.570312 -6.910156 20.429688 -7.445312 21.296875 -8.1875 L 25.78125 -3.53125 C 23.414062 -0.90625 19.96875 0.40625 15.4375 0.40625 C 12.601562 0.40625 10.113281 -0.128906 7.96875 -1.203125 C 5.820312 -2.273438 4.15625 -3.765625 2.96875 -5.671875 C 1.789062 -7.585938 1.203125 -9.753906 1.203125 -12.171875 C 1.203125 -14.554688 1.773438 -16.695312 2.921875 -18.59375 C 4.078125 -20.488281 5.664062 -21.972656 7.6875 -23.046875 C 9.71875 -24.117188 12.003906 -24.65625 14.546875 -24.65625 C 16.960938 -24.65625 19.15625 -24.15625 21.125 -23.15625 C 23.09375 -22.15625 24.648438 -20.707031 25.796875 -18.8125 C 26.941406 -16.914062 27.515625 -14.671875 27.515625 -12.078125 Z M 14.59375 -18.609375 C 13.28125 -18.609375 12.179688 -18.234375 11.296875 -17.484375 C 10.421875 -16.742188 9.863281 -15.734375 9.625 -14.453125 L 19.5625 -14.453125 C 19.320312 -15.734375 18.757812 -16.742188 17.875 -17.484375 C 17 -18.234375 15.90625 -18.609375 14.59375 -18.609375 Z M 14.59375 -18.609375 " />
            </g>
        </g>
    </g>
    <g fill="#000000" fill-opacity="1">
        <g transform="translate(177.740628, 221.817122)">
            <g>
                <path
                    d="M 17.453125 -31.328125 C 20.285156 -31.328125 22.742188 -30.851562 24.828125 -29.90625 C 26.921875 -28.96875 28.535156 -27.625 29.671875 -25.875 C 30.804688 -24.132812 31.375 -22.085938 31.375 -19.734375 C 31.375 -17.378906 30.804688 -15.335938 29.671875 -13.609375 C 28.535156 -11.878906 26.921875 -10.539062 24.828125 -9.59375 C 22.742188 -8.65625 20.285156 -8.1875 17.453125 -8.1875 L 12 -8.1875 L 12 0 L 3.125 0 L 3.125 -31.328125 Z M 16.921875 -15.171875 C 18.734375 -15.171875 20.101562 -15.566406 21.03125 -16.359375 C 21.957031 -17.148438 22.421875 -18.273438 22.421875 -19.734375 C 22.421875 -21.191406 21.957031 -22.320312 21.03125 -23.125 C 20.101562 -23.9375 18.734375 -24.34375 16.921875 -24.34375 L 12 -24.34375 L 12 -15.171875 Z M 16.921875 -15.171875 " />
            </g>
        </g>
    </g>
    <g fill="#000000" fill-opacity="1">
        <g transform="translate(205.973593, 221.817122)">
            <g>
                <path
                    d="M 13.0625 -24.65625 C 17.09375 -24.65625 20.164062 -23.738281 22.28125 -21.90625 C 24.40625 -20.070312 25.46875 -17.257812 25.46875 -13.46875 L 25.46875 0 L 17.546875 0 L 17.546875 -3.125 C 16.316406 -0.769531 13.925781 0.40625 10.375 0.40625 C 8.5 0.40625 6.875 0.078125 5.5 -0.578125 C 4.132812 -1.234375 3.097656 -2.117188 2.390625 -3.234375 C 1.691406 -4.359375 1.34375 -5.640625 1.34375 -7.078125 C 1.34375 -9.367188 2.222656 -11.144531 3.984375 -12.40625 C 5.742188 -13.675781 8.457031 -14.3125 12.125 -14.3125 L 16.953125 -14.3125 C 16.804688 -16.882812 15.09375 -18.171875 11.8125 -18.171875 C 10.644531 -18.171875 9.460938 -17.984375 8.265625 -17.609375 C 7.078125 -17.234375 6.066406 -16.71875 5.234375 -16.0625 L 2.375 -21.84375 C 3.71875 -22.738281 5.347656 -23.429688 7.265625 -23.921875 C 9.191406 -24.410156 11.125 -24.65625 13.0625 -24.65625 Z M 12.75 -4.96875 C 13.738281 -4.96875 14.601562 -5.207031 15.34375 -5.6875 C 16.09375 -6.164062 16.628906 -6.863281 16.953125 -7.78125 L 16.953125 -9.890625 L 13.296875 -9.890625 C 10.816406 -9.890625 9.578125 -9.066406 9.578125 -7.421875 C 9.578125 -6.679688 9.859375 -6.085938 10.421875 -5.640625 C 10.992188 -5.191406 11.769531 -4.96875 12.75 -4.96875 Z M 12.75 -4.96875 " />
            </g>
        </g>
    </g>
    <g fill="#000000" fill-opacity="1">
        <g transform="translate(229.329553, 221.817122)">
            <g>
                <path
                    d="M 11.546875 0.40625 C 9.515625 0.40625 7.515625 0.175781 5.546875 -0.28125 C 3.578125 -0.75 2 -1.359375 0.8125 -2.109375 L 3.359375 -7.921875 C 4.460938 -7.234375 5.773438 -6.6875 7.296875 -6.28125 C 8.816406 -5.882812 10.320312 -5.6875 11.8125 -5.6875 C 13.1875 -5.6875 14.164062 -5.828125 14.75 -6.109375 C 15.332031 -6.390625 15.625 -6.800781 15.625 -7.34375 C 15.625 -7.875 15.269531 -8.25 14.5625 -8.46875 C 13.863281 -8.695312 12.753906 -8.914062 11.234375 -9.125 C 9.296875 -9.363281 7.644531 -9.675781 6.28125 -10.0625 C 4.925781 -10.457031 3.753906 -11.175781 2.765625 -12.21875 C 1.785156 -13.257812 1.296875 -14.722656 1.296875 -16.609375 C 1.296875 -18.148438 1.757812 -19.523438 2.6875 -20.734375 C 3.613281 -21.941406 4.960938 -22.894531 6.734375 -23.59375 C 8.503906 -24.300781 10.628906 -24.65625 13.109375 -24.65625 C 14.867188 -24.65625 16.613281 -24.472656 18.34375 -24.109375 C 20.070312 -23.753906 21.519531 -23.25 22.6875 -22.59375 L 20.140625 -16.828125 C 17.992188 -18.015625 15.664062 -18.609375 13.15625 -18.609375 C 11.8125 -18.609375 10.828125 -18.453125 10.203125 -18.140625 C 9.578125 -17.828125 9.265625 -17.421875 9.265625 -16.921875 C 9.265625 -16.347656 9.609375 -15.945312 10.296875 -15.71875 C 10.984375 -15.5 12.113281 -15.269531 13.6875 -15.03125 C 15.6875 -14.738281 17.34375 -14.394531 18.65625 -14 C 19.96875 -13.613281 21.109375 -12.90625 22.078125 -11.875 C 23.046875 -10.851562 23.53125 -9.414062 23.53125 -7.5625 C 23.53125 -6.039062 23.066406 -4.675781 22.140625 -3.46875 C 21.222656 -2.257812 19.859375 -1.3125 18.046875 -0.625 C 16.242188 0.0625 14.078125 0.40625 11.546875 0.40625 Z M 11.546875 0.40625 " />
            </g>
        </g>
    </g>
    <g fill="#000000" fill-opacity="1">
        <g transform="translate(249.061311, 221.817122)">
            <g>
                <path
                    d="M 11.546875 0.40625 C 9.515625 0.40625 7.515625 0.175781 5.546875 -0.28125 C 3.578125 -0.75 2 -1.359375 0.8125 -2.109375 L 3.359375 -7.921875 C 4.460938 -7.234375 5.773438 -6.6875 7.296875 -6.28125 C 8.816406 -5.882812 10.320312 -5.6875 11.8125 -5.6875 C 13.1875 -5.6875 14.164062 -5.828125 14.75 -6.109375 C 15.332031 -6.390625 15.625 -6.800781 15.625 -7.34375 C 15.625 -7.875 15.269531 -8.25 14.5625 -8.46875 C 13.863281 -8.695312 12.753906 -8.914062 11.234375 -9.125 C 9.296875 -9.363281 7.644531 -9.675781 6.28125 -10.0625 C 4.925781 -10.457031 3.753906 -11.175781 2.765625 -12.21875 C 1.785156 -13.257812 1.296875 -14.722656 1.296875 -16.609375 C 1.296875 -18.148438 1.757812 -19.523438 2.6875 -20.734375 C 3.613281 -21.941406 4.960938 -22.894531 6.734375 -23.59375 C 8.503906 -24.300781 10.628906 -24.65625 13.109375 -24.65625 C 14.867188 -24.65625 16.613281 -24.472656 18.34375 -24.109375 C 20.070312 -23.753906 21.519531 -23.25 22.6875 -22.59375 L 20.140625 -16.828125 C 17.992188 -18.015625 15.664062 -18.609375 13.15625 -18.609375 C 11.8125 -18.609375 10.828125 -18.453125 10.203125 -18.140625 C 9.578125 -17.828125 9.265625 -17.421875 9.265625 -16.921875 C 9.265625 -16.347656 9.609375 -15.945312 10.296875 -15.71875 C 10.984375 -15.5 12.113281 -15.269531 13.6875 -15.03125 C 15.6875 -14.738281 17.34375 -14.394531 18.65625 -14 C 19.96875 -13.613281 21.109375 -12.90625 22.078125 -11.875 C 23.046875 -10.851562 23.53125 -9.414062 23.53125 -7.5625 C 23.53125 -6.039062 23.066406 -4.675781 22.140625 -3.46875 C 21.222656 -2.257812 19.859375 -1.3125 18.046875 -0.625 C 16.242188 0.0625 14.078125 0.40625 11.546875 0.40625 Z M 11.546875 0.40625 " />
            </g>
        </g>
    </g>
    <g fill="#000000" fill-opacity="1">
        <g transform="translate(268.793069, 221.817122)">
            <g>
                <path
                    d="M 13.0625 -24.65625 C 17.09375 -24.65625 20.164062 -23.738281 22.28125 -21.90625 C 24.40625 -20.070312 25.46875 -17.257812 25.46875 -13.46875 L 25.46875 0 L 17.546875 0 L 17.546875 -3.125 C 16.316406 -0.769531 13.925781 0.40625 10.375 0.40625 C 8.5 0.40625 6.875 0.078125 5.5 -0.578125 C 4.132812 -1.234375 3.097656 -2.117188 2.390625 -3.234375 C 1.691406 -4.359375 1.34375 -5.640625 1.34375 -7.078125 C 1.34375 -9.367188 2.222656 -11.144531 3.984375 -12.40625 C 5.742188 -13.675781 8.457031 -14.3125 12.125 -14.3125 L 16.953125 -14.3125 C 16.804688 -16.882812 15.09375 -18.171875 11.8125 -18.171875 C 10.644531 -18.171875 9.460938 -17.984375 8.265625 -17.609375 C 7.078125 -17.234375 6.066406 -16.71875 5.234375 -16.0625 L 2.375 -21.84375 C 3.71875 -22.738281 5.347656 -23.429688 7.265625 -23.921875 C 9.191406 -24.410156 11.125 -24.65625 13.0625 -24.65625 Z M 12.75 -4.96875 C 13.738281 -4.96875 14.601562 -5.207031 15.34375 -5.6875 C 16.09375 -6.164062 16.628906 -6.863281 16.953125 -7.78125 L 16.953125 -9.890625 L 13.296875 -9.890625 C 10.816406 -9.890625 9.578125 -9.066406 9.578125 -7.421875 C 9.578125 -6.679688 9.859375 -6.085938 10.421875 -5.640625 C 10.992188 -5.191406 11.769531 -4.96875 12.75 -4.96875 Z M 12.75 -4.96875 " />
            </g>
        </g>
    </g>
    <g clip-path="url(#1b1ab64d3d)">
        <g clip-path="url(#d525fc1f80)">
            <path fill="#ffffff"
                d="M 96.0625 196.734375 L 124.425781 196.734375 L 124.425781 225.101562 L 96.0625 225.101562 Z M 96.0625 196.734375 "
                fill-opacity="1" fill-rule="nonzero" />
        </g>
    </g>
    <g clip-path="url(#b866192c37)">
        <path fill="#000000"
            d="M 121.191406 217.074219 C 120.355469 218.523438 118.667969 219.175781 117.125 218.769531 L 113.347656 222.546875 L 112.890625 223.007812 L 112.429688 222.546875 C 111.773438 223.210938 110.859375 223.621094 109.851562 223.621094 C 107.847656 223.621094 106.21875 221.996094 106.21875 219.992188 C 106.21875 218.464844 107.164062 217.15625 108.503906 216.621094 L 107.175781 215.292969 L 106.636719 215.835938 L 106.175781 216.296875 L 105.28125 215.398438 C 105.230469 216.601562 104.585938 217.757812 103.46875 218.40625 C 101.730469 219.40625 99.507812 218.808594 98.507812 217.074219 C 97.503906 215.339844 98.097656 213.117188 99.835938 212.113281 C 101.335938 211.25 103.195312 211.574219 104.320312 212.792969 L 114.773438 202.339844 L 115.570312 203.136719 C 115.769531 202.953125 115.988281 202.789062 116.234375 202.648438 C 117.96875 201.644531 120.1875 202.242188 121.191406 203.976562 C 122.195312 205.710938 121.601562 207.933594 119.863281 208.9375 C 119.757812 209 119.648438 209.054688 119.535156 209.105469 L 120.484375 210.054688 L 121.484375 209.054688 L 121.945312 209.515625 L 122.359375 209.925781 L 122.820312 210.386719 L 122.960938 210.53125 L 123.421875 210.988281 L 124.164062 211.730469 L 121.558594 214.335938 C 121.796875 215.230469 121.691406 216.210938 121.191406 217.074219 Z M 98.507812 203.976562 C 99.507812 202.242188 101.730469 201.644531 103.46875 202.648438 C 105.203125 203.652344 105.796875 205.871094 104.796875 207.605469 C 103.792969 209.34375 101.574219 209.9375 99.835938 208.9375 C 98.097656 207.933594 97.503906 205.710938 98.507812 203.976562 Z M 109.851562 197.429688 C 111.855469 197.429688 113.480469 199.050781 113.480469 201.058594 C 113.480469 203.0625 111.855469 204.691406 109.851562 204.691406 C 107.847656 204.691406 106.21875 203.0625 106.21875 201.058594 C 106.21875 199.050781 107.847656 197.429688 109.851562 197.429688 Z M 109.851562 195.953125 C 101.800781 195.953125 95.277344 202.476562 95.277344 210.523438 C 95.277344 218.574219 101.800781 225.097656 109.851562 225.097656 C 117.898438 225.097656 124.425781 218.574219 124.425781 210.523438 C 124.425781 202.476562 117.898438 195.953125 109.851562 195.953125 "
            fill-opacity="1" fill-rule="nonzero" />
    </g>
    <path fill="#000000"
        d="M 121.75 212.660156 L 121.21875 213.191406 C 121.195312 213.214844 121.167969 213.226562 121.136719 213.226562 C 121.105469 213.226562 121.070312 213.214844 121.046875 213.191406 L 121 213.140625 L 120.164062 212.308594 L 120.15625 212.300781 C 120.109375 212.253906 120.109375 212.175781 120.15625 212.128906 L 120.6875 211.597656 C 120.710938 211.574219 120.742188 211.5625 120.773438 211.5625 C 120.804688 211.5625 120.835938 211.574219 120.859375 211.601562 L 121.75 212.488281 C 121.796875 212.539062 121.796875 212.613281 121.75 212.660156 Z M 120.269531 214.140625 L 119.738281 214.671875 C 119.714844 214.695312 119.683594 214.707031 119.65625 214.707031 C 119.625 214.707031 119.589844 214.695312 119.566406 214.671875 L 118.675781 213.78125 C 118.628906 213.734375 118.628906 213.65625 118.675781 213.609375 L 119.207031 213.078125 C 119.230469 213.054688 119.261719 213.042969 119.292969 213.042969 C 119.324219 213.042969 119.355469 213.054688 119.378906 213.082031 L 120.269531 213.96875 C 120.316406 214.019531 120.316406 214.09375 120.269531 214.140625 Z M 118.789062 215.621094 L 118.257812 216.152344 C 118.234375 216.175781 118.203125 216.1875 118.175781 216.1875 C 118.144531 216.1875 118.113281 216.175781 118.085938 216.152344 L 117.195312 215.261719 C 117.148438 215.214844 117.148438 215.136719 117.195312 215.089844 L 117.726562 214.558594 C 117.75 214.535156 117.78125 214.523438 117.8125 214.523438 C 117.84375 214.523438 117.875 214.539062 117.898438 214.5625 L 118.789062 215.453125 C 118.835938 215.5 118.835938 215.574219 118.789062 215.621094 Z M 117.308594 217.101562 L 116.777344 217.632812 C 116.757812 217.65625 116.726562 217.667969 116.695312 217.667969 C 116.664062 217.667969 116.632812 217.65625 116.605469 217.632812 L 115.71875 216.742188 C 115.667969 216.695312 115.667969 216.617188 115.714844 216.570312 L 116.246094 216.039062 C 116.269531 216.015625 116.300781 216.003906 116.332031 216.003906 C 116.363281 216.003906 116.394531 216.019531 116.417969 216.042969 L 117.308594 216.933594 C 117.355469 216.976562 117.355469 217.058594 117.308594 217.101562 Z M 115.828125 218.582031 L 115.296875 219.113281 C 115.273438 219.136719 115.246094 219.148438 115.214844 219.148438 C 115.183594 219.148438 115.152344 219.136719 115.125 219.113281 L 114.238281 218.222656 C 114.1875 218.171875 114.1875 218.097656 114.238281 218.050781 L 114.765625 217.519531 C 114.789062 217.496094 114.820312 217.484375 114.851562 217.484375 C 114.882812 217.484375 114.914062 217.5 114.9375 217.523438 L 115.828125 218.410156 C 115.875 218.460938 115.875 218.535156 115.828125 218.582031 Z M 114.351562 220.0625 L 113.816406 220.59375 C 113.796875 220.617188 113.765625 220.628906 113.734375 220.628906 C 113.703125 220.628906 113.671875 220.617188 113.648438 220.59375 L 112.757812 219.703125 C 112.707031 219.65625 112.707031 219.578125 112.757812 219.53125 L 113.289062 219 C 113.300781 218.988281 113.316406 218.976562 113.335938 218.972656 C 113.347656 218.96875 113.359375 218.964844 113.371094 218.964844 C 113.402344 218.964844 113.433594 218.976562 113.457031 219.003906 L 114.347656 219.890625 C 114.394531 219.941406 114.394531 220.015625 114.351562 220.0625 Z M 112.191406 218.503906 L 110.050781 216.367188 L 107.996094 214.316406 C 107.789062 214.105469 107.789062 213.761719 107.996094 213.550781 L 109.148438 212.402344 L 114.707031 206.84375 C 114.8125 206.738281 114.953125 206.683594 115.089844 206.683594 C 115.226562 206.683594 115.367188 206.738281 115.472656 206.84375 L 118.050781 209.421875 L 118.054688 209.421875 L 119.660156 211.035156 C 119.871094 211.246094 119.871094 211.585938 119.660156 211.796875 L 112.953125 218.503906 C 112.847656 218.609375 112.707031 218.664062 112.570312 218.664062 C 112.433594 218.664062 112.296875 218.609375 112.191406 218.503906 Z M 107.394531 211.375 C 107.34375 211.332031 107.34375 211.253906 107.390625 211.207031 L 107.921875 210.675781 C 107.945312 210.652344 107.976562 210.640625 108.003906 210.640625 C 108.035156 210.640625 108.066406 210.652344 108.09375 210.679688 L 108.980469 211.566406 C 109.03125 211.617188 109.03125 211.691406 108.984375 211.738281 L 108.453125 212.269531 C 108.429688 212.292969 108.402344 212.304688 108.371094 212.304688 C 108.339844 212.304688 108.308594 212.292969 108.28125 212.265625 Z M 107.503906 213.21875 L 106.972656 213.75 C 106.949219 213.773438 106.921875 213.785156 106.890625 213.785156 C 106.859375 213.785156 106.828125 213.773438 106.800781 213.746094 L 105.914062 212.859375 C 105.863281 212.8125 105.863281 212.734375 105.910156 212.6875 L 106.441406 212.15625 C 106.464844 212.132812 106.492188 212.121094 106.523438 212.121094 C 106.554688 212.121094 106.585938 212.132812 106.613281 212.15625 L 107.5 213.046875 C 107.550781 213.09375 107.550781 213.171875 107.503906 213.21875 Z M 108.871094 209.726562 L 109.402344 209.195312 C 109.425781 209.171875 109.457031 209.160156 109.484375 209.160156 C 109.515625 209.160156 109.546875 209.171875 109.574219 209.195312 L 110.460938 210.085938 C 110.511719 210.132812 110.511719 210.210938 110.464844 210.257812 L 109.933594 210.789062 C 109.910156 210.8125 109.878906 210.824219 109.851562 210.824219 C 109.820312 210.824219 109.785156 210.808594 109.761719 210.785156 L 108.875 209.894531 C 108.824219 209.851562 108.824219 209.773438 108.871094 209.726562 Z M 110.351562 208.246094 L 110.882812 207.714844 C 110.90625 207.691406 110.9375 207.679688 110.964844 207.679688 C 110.996094 207.679688 111.027344 207.691406 111.054688 207.714844 L 111.941406 208.605469 C 111.992188 208.652344 111.992188 208.730469 111.945312 208.777344 L 111.414062 209.308594 C 111.390625 209.332031 111.359375 209.34375 111.332031 209.34375 C 111.300781 209.34375 111.265625 209.332031 111.242188 209.304688 L 110.351562 208.417969 C 110.304688 208.367188 110.304688 208.292969 110.351562 208.246094 Z M 111.832031 206.765625 L 112.363281 206.234375 C 112.386719 206.210938 112.417969 206.199219 112.449219 206.199219 C 112.480469 206.199219 112.511719 206.210938 112.535156 206.234375 L 113.421875 207.125 C 113.46875 207.171875 113.472656 207.25 113.425781 207.296875 L 112.894531 207.828125 C 112.871094 207.851562 112.839844 207.863281 112.808594 207.863281 C 112.777344 207.863281 112.746094 207.851562 112.722656 207.824219 L 111.832031 206.9375 C 111.785156 206.886719 111.785156 206.8125 111.832031 206.765625 Z M 113.3125 205.285156 L 113.84375 204.753906 C 113.867188 204.730469 113.894531 204.71875 113.925781 204.71875 C 113.957031 204.71875 113.988281 204.730469 114.015625 204.753906 L 114.46875 205.207031 L 114.902344 205.644531 C 114.949219 205.691406 114.953125 205.769531 114.90625 205.816406 L 114.375 206.347656 C 114.351562 206.371094 114.320312 206.382812 114.289062 206.382812 C 114.257812 206.382812 114.226562 206.371094 114.203125 206.34375 L 113.3125 205.457031 C 113.265625 205.40625 113.265625 205.332031 113.3125 205.285156 Z M 122.960938 211.449219 L 122.699219 211.710938 C 122.675781 211.734375 122.648438 211.746094 122.617188 211.746094 C 122.585938 211.746094 122.550781 211.734375 122.527344 211.710938 L 121.636719 210.820312 C 121.589844 210.773438 121.59375 210.695312 121.636719 210.648438 L 121.898438 210.386719 L 121.484375 209.972656 L 120.863281 210.59375 C 120.757812 210.699219 120.621094 210.753906 120.484375 210.753906 C 120.34375 210.753906 120.207031 210.699219 120.101562 210.59375 L 115.910156 206.402344 C 115.699219 206.191406 115.699219 205.851562 115.910156 205.640625 L 116.53125 205.019531 L 116.117188 204.605469 L 115.855469 204.867188 C 115.832031 204.890625 115.800781 204.902344 115.769531 204.902344 C 115.738281 204.902344 115.707031 204.890625 115.683594 204.867188 L 114.867188 204.046875 L 114.792969 203.976562 C 114.746094 203.929688 114.746094 203.851562 114.792969 203.804688 L 115.054688 203.542969 L 114.773438 203.261719 L 104.417969 213.617188 L 104.699219 213.898438 L 104.960938 213.636719 C 104.984375 213.613281 105.015625 213.601562 105.046875 213.601562 C 105.078125 213.601562 105.109375 213.613281 105.132812 213.640625 L 106.019531 214.527344 C 106.070312 214.574219 106.070312 214.652344 106.023438 214.699219 L 105.761719 214.960938 L 106.175781 215.375 L 106.796875 214.753906 C 106.902344 214.648438 107.039062 214.597656 107.175781 214.597656 C 107.316406 214.597656 107.453125 214.648438 107.558594 214.753906 L 109.222656 216.414062 L 111.75 218.945312 C 111.960938 219.15625 111.960938 219.496094 111.75 219.707031 L 111.128906 220.328125 L 111.546875 220.742188 L 111.804688 220.480469 C 111.828125 220.457031 111.859375 220.445312 111.890625 220.445312 C 111.921875 220.445312 111.953125 220.457031 111.976562 220.484375 L 112.867188 221.371094 C 112.914062 221.417969 112.914062 221.496094 112.871094 221.542969 L 112.609375 221.804688 L 112.890625 222.085938 L 116.453125 218.519531 L 121.3125 213.664062 L 123.242188 211.730469 L 122.960938 211.449219 "
        fill-opacity="1" fill-rule="nonzero" />
</svg>